<?xml version="1.0" standalone="no"?>
<!DOCTYPE svg PUBLIC "-//W3C//DTD SVG 20010904//EN"
 "http://www.w3.org/TR/2001/REC-SVG-20010904/DTD/svg10.dtd">
<svg version="1.0" xmlns="http://www.w3.org/2000/svg"
 width="1110.000000pt" height="1114.000000pt" viewBox="0 0 1110.000000 1114.000000"
 preserveAspectRatio="xMidYMid meet">
<metadata>
Created by potrace 1.16, written by Peter Selinger 2001-2019
</metadata>
<g transform="translate(0.000000,1114.000000) scale(0.100000,-0.100000)"
fill="white" stroke="none">
<path d="M5631 10103 c-36 -7 -4653 -2031 -4681 -2052 -14 -10 -35 -33 -48
-51 l-22 -33 0 -564 c0 -612 -1 -606 55 -631 16 -8 82 -12 178 -12 164 0 193
-7 214 -51 10 -20 18 -701 37 -2920 18 -2173 27 -2900 36 -2920 6 -14 21 -32
33 -40 19 -12 578 -14 4222 -17 3984 -2 4202 -1 4235 15 19 10 40 29 47 43 10
20 13 627 13 2928 l0 2904 29 29 29 29 196 0 c130 0 204 4 221 12 55 25 55 20
55 623 0 598 0 594 -52 643 -14 12 -1072 481 -2352 1042 -2337 1024 -2372
1038 -2445 1023z m135 -459 c286 -118 4206 -1842 4223 -1858 46 -41 51 -71 51
-290 l0 -204 -26 -31 -26 -31 -181 0 c-200 0 -246 -8 -277 -47 l-20 -26 0
-2909 c0 -3185 4 -2955 -56 -2978 -14 -6 -126 -10 -250 -10 l-224 0 0 2220 c0
1927 -2 2225 -15 2256 -29 70 258 64 -3305 62 l-3220 -3 -27 -28 -28 -27 -3
-2240 -2 -2240 -241 0 c-274 0 -291 4 -308 68 -6 23 -18 1108 -32 2912 -17
2340 -24 2881 -35 2908 -21 52 -59 62 -236 62 -105 1 -158 5 -169 13 -35 27
-39 53 -39 262 0 219 3 237 52 282 12 12 975 443 2138 957 2309 1021 2159 960
2256 920z m-1479 -5287 l28 -27 0 -370 0 -370 -28 -27 -27 -28 -731 0 -731 0
-24 28 -24 28 0 365 c0 242 4 372 11 385 26 49 26 49 786 46 l713 -2 27 -28z
m-5 -1146 l33 -29 3 -350 c3 -296 1 -355 -12 -386 -28 -68 -5 -66 -776 -66
-737 0 -743 0 -769 48 -7 14 -11 143 -11 384 0 392 1 397 54 418 11 5 342 9
733 9 l713 1 32 -29z m1843 15 c54 -23 57 -46 53 -438 l-3 -348 -28 -27 -27
-28 -698 -3 c-383 -2 -712 0 -731 3 -18 4 -44 17 -57 30 l-24 24 0 366 c0 243
4 373 11 386 25 48 29 48 772 49 581 0 703 -2 732 -14z m-1860 -1146 c52 -20
55 -45 55 -450 l0 -370 -785 0 -785 0 0 388 c1 405 1 404 45 430 26 15 1431
17 1470 2z m1882 -14 l28 -24 3 -391 3 -391 -786 0 -785 0 0 386 0 386 29 29
29 29 726 0 725 0 28 -24z m1864 -5 l29 -29 0 -386 0 -386 -785 0 -785 0 0
386 0 386 29 29 29 29 727 0 727 0 29 -29z"/>
<path d="M2424 7165 c-43 -29 -45 -53 -42 -429 l3 -358 33 -29 32 -29 645 0
c478 0 651 3 670 12 53 24 55 36 55 428 l0 362 -29 29 -29 29 -659 0 c-561 0
-662 -2 -679 -15z"/>
<path d="M4133 7156 l-28 -24 -3 -363 c-2 -262 1 -371 9 -392 24 -58 9 -57
709 -57 700 0 685 -1 709 57 8 21 11 130 9 392 l-3 363 -28 24 -28 24 -659 0
-659 0 -28 -24z"/>
<path d="M5849 7151 l-29 -29 0 -362 c0 -392 2 -404 55 -428 19 -9 192 -12
670 -12 l645 0 32 29 33 29 3 358 c2 257 -1 366 -9 386 -25 61 7 58 -712 58
l-659 0 -29 -29z"/>
<path d="M7569 7151 l-29 -29 0 -371 0 -370 24 -28 24 -28 661 -3 660 -2 33
29 33 29 3 344 c2 189 0 358 -3 377 -4 18 -17 44 -30 57 l-24 24 -661 0 -662
0 -29 -29z"/>
</g>
</svg>
