<?xml version="1.0" standalone="no"?>
<!DOCTYPE svg PUBLIC "-//W3C//DTD SVG 20010904//EN"
 "http://www.w3.org/TR/2001/REC-SVG-20010904/DTD/svg10.dtd">
<svg version="1.0" xmlns="http://www.w3.org/2000/svg"
 width="18px" height="18px" viewBox="0 0 18 18"
 preserveAspectRatio="xMidYMid meet">

<g transform="translate(0.000000,18) scale(0.100000,-0.100000)"
fill="red" stroke="none">
<path d="M2305 4459 c-185 -15 -500 -74 -644 -120 l-33 -11 157 -158 157 -157
66 14 c216 45 451 62 707 51 260 -11 492 -54 745 -138 248 -83 427 -169 650
-315 238 -155 477 -370 639 -573 l74 -93 134 133 c73 73 133 137 133 142 0 17
-146 183 -270 306 -657 656 -1585 995 -2515 919z"/>
<path d="M744 3915 c-181 -123 -307 -228 -485 -405 -96 -96 -194 -198 -217
-226 l-41 -50 137 -137 137 -137 64 80 c83 104 292 310 411 406 52 42 149 112
215 155 66 43 128 84 138 91 16 12 5 26 -121 151 l-139 139 -99 -67z"/>
<path d="M2668 3303 c55 -60 152 -158 214 -220 94 -93 120 -113 158 -123 408
-102 795 -359 1040 -691 34 -46 65 -85 69 -87 3 -1 66 58 140 132 l134 134
-62 80 c-214 282 -489 506 -813 662 -287 138 -619 220 -897 220 l-83 0 100
-107z"/>
<path d="M1485 3147 c-281 -147 -550 -372 -739 -620 l-60 -78 135 -135 c73
-73 136 -134 139 -134 3 1 30 35 60 78 30 42 116 138 190 212 185 186 365 309
585 402 55 23 102 43 105 45 4 4 -282 293 -290 293 -3 0 -59 -29 -125 -63z"/>
<path d="M2315 2325 c-172 -31 -388 -121 -530 -222 -147 -105 -305 -277 -380
-416 l-27 -49 138 -139 c76 -77 141 -139 144 -139 3 0 22 36 44 79 85 176 235
324 421 416 257 129 514 138 800 30 11 -4 -83 96 -210 224 l-230 231 -50 -1
c-27 0 -81 -7 -120 -14z"/>
<path d="M2438 1261 c-156 -50 -262 -167 -294 -325 -28 -138 14 -280 113 -379
93 -94 194 -132 327 -125 114 7 182 36 262 110 175 164 187 420 27 598 -108
120 -284 169 -435 121z"/>
</g>
</svg>
