<?xml version="1.0" standalone="no"?>
<!DOCTYPE svg PUBLIC "-//W3C//DTD SVG 20010904//EN"
 "http://www.w3.org/TR/2001/REC-SVG-20010904/DTD/svg10.dtd">
<svg version="1.0" xmlns="http://www.w3.org/2000/svg"
 width="200.000000pt" height="200.000000pt" viewBox="0 0 200.000000 200.000000"
 preserveAspectRatio="xMidYMid meet">

<g transform="translate(0.000000,200.000000) scale(0.100000,-0.100000)"
fill="white" stroke="none">
<path d="M851 1634 c-86 -23 -151 -63 -231 -144 -80 -80 -119 -145 -145 -246
-19 -75 -19 -190 1 -268 32 -124 63 -165 301 -406 l223 -225 223 225 c241 243
272 286 302 411 45 194 -12 387 -155 523 -71 67 -160 117 -240 135 -64 15
-216 12 -279 -5z m331 -157 c259 -127 313 -467 107 -668 -162 -158 -426 -156
-584 6 -215 220 -130 582 161 685 47 16 77 20 150 17 82 -2 100 -7 166 -40z"/>
<path d="M970 1347 c0 -28 -5 -36 -33 -49 -34 -16 -67 -68 -67 -105 0 -40 39
-82 109 -117 77 -39 92 -62 67 -101 -13 -20 -25 -25 -61 -25 -24 0 -56 5 -70
12 -30 13 -35 10 -38 -28 -2 -25 3 -29 46 -42 41 -14 47 -19 47 -44 0 -24 4
-28 30 -28 28 0 30 3 30 35 0 25 4 35 16 35 9 0 31 15 50 34 29 29 34 41 34
82 -1 63 -17 84 -105 131 -72 40 -91 67 -65 99 15 17 82 19 112 3 24 -13 36
-3 40 31 3 20 -3 26 -37 35 -35 10 -40 16 -43 43 -3 28 -7 32 -33 32 -26 0
-29 -3 -29 -33z"/>
<path d="M238 1303 c-54 -20 -98 -39 -98 -43 0 -4 14 -13 31 -20 26 -11 29
-17 24 -39 -43 -170 -13 -301 97 -417 44 -47 137 -114 159 -114 3 0 -13 19
-36 43 -60 63 -87 127 -93 220 -4 72 10 178 28 207 6 9 15 8 40 -5 17 -9 34
-15 36 -13 5 6 -78 218 -85 217 -3 0 -50 -17 -103 -36z"/>
<path d="M1585 1287 c62 -65 87 -127 93 -225 3 -60 0 -101 -13 -148 -9 -35
-19 -64 -22 -64 -2 0 -18 7 -34 16 -17 8 -33 14 -35 12 -3 -3 73 -208 80 -215
5 -5 206 70 206 77 0 4 -14 13 -31 20 -26 11 -29 17 -24 39 43 168 12 302 -97
417 -44 47 -137 114 -159 114 -3 0 13 -19 36 -43z"/>
</g>
</svg>
